<svg xmlns="http://www.w3.org/2000/svg" width="288" height="503.999" viewBox="0 0 288 503.999">
  <g id="bg-card1" transform="translate(-4221.958 -1206.001)">
    <g id="Group_657" data-name="Group 657" transform="translate(3786 1058)">
      <g id="Group_656" data-name="Group 656">
        <g id="Group_655" data-name="Group 655">
          <g id="Group_654" data-name="Group 654">
            <g id="Group_625" data-name="Group 625">
              <path id="Path_400" data-name="Path 400" d="M723.958,148h-288V652h288Z" fill="#01093a"/>
              <g id="Group_623" data-name="Group 623">
                <g id="Group_621" data-name="Group 621">
                  <path id="Path_401" data-name="Path 401" d="M718.958,274.9c-26.515,46.017-65.006,85.042-98.058,127.859A139.411,139.411,0,0,0,505.251,652H723.958V265.86Q721.538,270.426,718.958,274.9Z" fill="#fff"/>
                </g>
                <g id="Group_622" data-name="Group 622">
                  <path id="Path_402" data-name="Path 402" d="M633.876,273.549A383.519,383.519,0,0,0,656.485,148H635.536A383.762,383.762,0,0,1,622.88,272.259c-7.074,26.2-16.643,51.583-26.018,77.031q1.321.82,2.6,1.7C611.041,326.539,623.1,303.623,633.876,273.549Z" fill="#0077be"/>
                  <path id="Path_403" data-name="Path 403" d="M495.183,405.889a66.6,66.6,0,0,1,66.6-66.6,77.941,77.941,0,0,0-75.1,98.832,140,140,0,0,1,12.1-10.643A66.466,66.466,0,0,1,495.183,405.889Z" fill="#0077be"/>
                  <path id="Path_404" data-name="Path 404" d="M656.485,148a383.519,383.519,0,0,1-22.609,125.548c-10.774,30.074-22.835,52.99-34.412,77.442l0,0a66.587,66.587,0,0,0-100.684,76.485A139.6,139.6,0,0,1,620.9,402.76q3.213-4.161,6.489-8.277c31.5-39.626,66.772-76.546,91.569-119.582q2.578-4.473,5-9.041V148Z" fill="#03bff6"/>
                </g>
              </g>
              <path id="Path_405" data-name="Path 405" d="M656.739,408.707c.432.365.869.725,1.3,1.094,6.285,5.363,12.356,10.9,18.076,16.715,22.19,22.562,40.719,56.373,47.844,93.371V476.93C698.7,435.523,663.849,413.672,656.739,408.707Z" fill="#0077be"/>
              <g id="Group_624" data-name="Group 624">
                <path id="Path_406" data-name="Path 406" d="M663.872,652h60.086V537.361A139.23,139.23,0,0,1,663.872,652Z" fill="#01093a"/>
              </g>
            </g>
          </g>
        </g>
      </g>
    </g>
  </g>
</svg>
