<svg xmlns="http://www.w3.org/2000/svg" width="36.488" height="40.685" viewBox="0 0 36.488 40.685">
  <path id="hexagon" d="M259.153,303.492a5.032,5.032,0,0,1-2.482-.6l-13.282-7.715a5.43,5.43,0,0,1-2.479-4.307V275.414a5.427,5.427,0,0,1,2.479-4.307l13.28-7.715a5.573,5.573,0,0,1,4.967,0l13.282,7.717a5.429,5.429,0,0,1,2.48,4.307v15.453a5.432,5.432,0,0,1-2.48,4.307l-13.28,7.713A5.014,5.014,0,0,1,259.153,303.492Zm0-39.23a3.608,3.608,0,0,0-1.742.405l-13.28,7.713a4.006,4.006,0,0,0-1.744,3.033v15.453a4.012,4.012,0,0,0,1.744,3.033l13.28,7.713a4.133,4.133,0,0,0,3.484,0l13.282-7.711a4.014,4.014,0,0,0,1.746-3.033V275.414a4.008,4.008,0,0,0-1.746-3.033L260.9,264.668A3.6,3.6,0,0,0,259.153,264.262Z" transform="translate(-240.91 -262.807)" fill="#ed1c24"/>
</svg>
