<svg id="setting" xmlns="http://www.w3.org/2000/svg" width="27.954" height="27.954" viewBox="0 0 27.954 27.954">
  <path id="Path_865" data-name="Path 865" d="M0,0H27.954V27.954H0Z" fill="none"/>
  <path id="Path_866" data-name="Path 866" d="M11.532,4.534a2.008,2.008,0,0,1,3.9,0,2.008,2.008,0,0,0,3,1.242,2.009,2.009,0,0,1,2.76,2.76,2.008,2.008,0,0,0,1.24,3,2.008,2.008,0,0,1,0,3.9,2.008,2.008,0,0,0-1.242,3,2.009,2.009,0,0,1-2.76,2.76,2.008,2.008,0,0,0-3,1.24,2.008,2.008,0,0,1-3.9,0,2.008,2.008,0,0,0-3-1.242,2.009,2.009,0,0,1-2.76-2.76,2.008,2.008,0,0,0-1.24-3,2.008,2.008,0,0,1,0-3.9,2.008,2.008,0,0,0,1.242-3,2.009,2.009,0,0,1,2.76-2.76,2.006,2.006,0,0,0,3-1.24Z" transform="translate(0.494 0.494)" fill="none" stroke="#f76588" stroke-linecap="round" stroke-linejoin="round" stroke-width="1.5"/>
  <circle id="Ellipse_139" data-name="Ellipse 139" cx="3.5" cy="3.5" r="3.5" transform="translate(10 10)" fill="none" stroke="#f76588" stroke-linecap="round" stroke-linejoin="round" stroke-width="1.5"/>
</svg>
